<svg viewBox="0 0 100 100" xmlns="http://www.w3.org/2000/svg"><g transform=""><g fill="#00ffd8"><path d="m18 29.789v-7.6a4.161 4.161 0 0 1 4.1-4.189h58.855a4.161 4.161 0 0 1 4.1 4.192v7.6a4.161 4.161 0 0 1 -4.1 4.192h-58.855a4.144 4.144 0 0 1 -4.1-4.195z" transform="translate(-13.382 -13.284)"/><path d="m18 125.289v-7.6a4.161 4.161 0 0 1 4.1-4.192h87.173a4.161 4.161 0 0 1 4.1 4.192v7.6a4.161 4.161 0 0 1 -4.1 4.192h-87.173a4.144 4.144 0 0 1 -4.1-4.192z" transform="translate(-13.382 -83.765)"/><path d="m18 230.189v-7.6a4.161 4.161 0 0 1 4.1-4.192h80.682a4.161 4.161 0 0 1 4.1 4.192v7.6a4.161 4.161 0 0 1 -4.1 4.192h-80.682a4.161 4.161 0 0 1 -4.1-4.192z" transform="translate(-13.382 -161.182)"/><path d="m15.5 332.489v-7.6a4.161 4.161 0 0 1 4.1-4.192h41.821a4.161 4.161 0 0 1 4.1 4.192v7.6a4.161 4.161 0 0 1 -4.1 4.192h-41.821a4.161 4.161 0 0 1 -4.1-4.192z" transform="translate(-11.524 -236.681)"/></g><path d="m0 11.789v-7.6a4.161 4.161 0 0 1 4.1-4.189h58.855a4.161 4.161 0 0 1 4.1 4.192v7.6a4.161 4.161 0 0 1 -4.1 4.192h-58.855a4.144 4.144 0 0 1 -4.1-4.195z" fill="#003bff"/><path d="m0 107.289v-7.6a4.161 4.161 0 0 1 4.1-4.189h87.178a4.161 4.161 0 0 1 4.1 4.192v7.6a4.161 4.161 0 0 1 -4.1 4.192h-87.178a4.144 4.144 0 0 1 -4.1-4.195z" fill="#003bff" transform="translate(0 -70.48)"/><path d="m0 212.189v-7.6a4.161 4.161 0 0 1 4.1-4.189h80.687a4.161 4.161 0 0 1 4.1 4.192v7.6a4.161 4.161 0 0 1 -4.1 4.192h-80.687a4.161 4.161 0 0 1 -4.1-4.195z" fill="#003bff" transform="translate(0 -147.898)"/><path d="m0 316.989v-7.6a4.161 4.161 0 0 1 4.1-4.189h41.821a4.161 4.161 0 0 1 4.1 4.192v7.6a4.161 4.161 0 0 1 -4.1 4.192h-41.821a4.161 4.161 0 0 1 -4.1-4.195z" fill="#003bff" transform="translate(0 -225.242)"/></g></svg>