<svg enable-background="new 0 0 23.5 14" viewBox="0 0 23.5 14" xmlns="http://www.w3.org/2000/svg"><path d="m11.8 2.5c-2.7-.4-5 1.9-4.6 4.6.3 1.7 1.6 3.1 3.3 3.3 2.7.4 5-1.9 4.6-4.6-.2-1.6-1.6-3-3.3-3.3z" fill="#01ddbb"/><g fill="#003bff"><path d="m12.4 3c-2.7-.4-5 1.9-4.6 4.6.2 1.7 1.6 3.1 3.3 3.4 2.7.4 5-1.9 4.6-4.6-.3-1.7-1.7-3.1-3.3-3.4z"/><path d="m23.2 5.9c-1.3-1.7-5.3-5.9-11.5-5.9-6 0-10.1 4.2-11.4 5.9-.3.4-.3 1 0 1.4 1.3 1.8 5.6 6.7 11.4 6.7 6.3 0 10.3-4.9 11.6-6.8.3-.4.3-.9-.1-1.3zm-11.5 6.1c-4.4 0-7.9-3.5-9.5-5.4 1.6-1.7 4.9-4.6 9.5-4.6 4.8 0 8.1 3 9.5 4.6-1.4 1.9-4.7 5.4-9.5 5.4z"/></g></svg>